# xmcd
#
# Track frame offsets: 
#        150
#        39826
#        113700
#        192077
#        260437
#
# Disc length: 4282 seconds
#
# Revision: 0
# Processed by: cddbd v1.5.2PL0 Copyright (c) Steve Scherf et al.
# Submitted via: ExactAudioCopy v1.0b3
#
DISCID=3610b805
DTITLE=Ludwig van Beethoven - Missa Solemnis In Re Major - Messa in do
DTITLE=maggiore
DYEAR=1989
DGENRE=Classical
TTITLE0=Kyrie
TTITLE1=Gloria
TTITLE2=Credo
TTITLE3=Sanctus
TTITLE4=Agnus Dei
EXTD=
EXTT0=
EXTT1=
EXTT2=
EXTT3=
EXTT4=
PLAYORDER=
